<svg xmlns="http://www.w3.org/2000/svg"  viewBox="0 0 64 64" width="64px" height="64px"><linearGradient id="rJAhWW~cL04FMotgfBKoJa" x1="34" x2="34" y1="31" y2="39.001" gradientUnits="userSpaceOnUse" spreadMethod="reflect"><stop offset="0" stop-color="#6dc7ff"/><stop offset="1" stop-color="#e6abff"/></linearGradient><path fill="url(#rJAhWW~cL04FMotgfBKoJa)" d="M35.114,31.082c-1.538-0.442-3.283,0.955-3.899,3.119c-0.615,2.164,0.133,4.276,1.671,4.718 c1.538,0.442,3.283-0.955,3.899-3.119C37.4,33.636,36.652,31.523,35.114,31.082z M34.873,34.731C34.568,35.576,33.865,36,33.557,36 c-0.019,0-0.035-0.002-0.052-0.006c-0.318-0.072-0.712-0.8-0.378-1.725C33.432,33.424,34.135,33,34.443,33 c0.019,0,0.035,0.002,0.052,0.006C34.813,33.077,35.207,33.805,34.873,34.731z"/><linearGradient id="rJAhWW~cL04FMotgfBKoJb" x1="47.994" x2="47.994" y1="34" y2="39.969" gradientUnits="userSpaceOnUse" spreadMethod="reflect"><stop offset="0" stop-color="#6dc7ff"/><stop offset="1" stop-color="#e6abff"/></linearGradient><path fill="url(#rJAhWW~cL04FMotgfBKoJb)" d="M48.718,34.082c-1.042-0.334-2.131,0.354-2.553,1.963c-0.422,1.609-0.018,3.528,1.024,3.862 c1.041,0.334,2.228-0.699,2.65-2.308C50.26,35.991,49.759,34.417,48.718,34.082z M48.082,37.034 c-0.212,0.804-0.777,1.329-1.263,1.173s-0.707-0.934-0.494-1.738c0.213-0.804,0.777-1.329,1.263-1.173 C48.074,35.452,48.294,36.23,48.082,37.034z"/><linearGradient id="rJAhWW~cL04FMotgfBKoJc" x1="14" x2="14" y1="6.25" y2="57.791" gradientUnits="userSpaceOnUse" spreadMethod="reflect"><stop offset="0" stop-color="#1a6dff"/><stop offset="1" stop-color="#c822ff"/></linearGradient><path fill="url(#rJAhWW~cL04FMotgfBKoJc)" d="M13,37.521c-1.313,0-2,1.087-2,2.16c0,0.553,0.448,1,1,1s1-0.447,1-1 c0-0.015,0.011-0.083,0.027-0.141c0.459,0.213,1.433,1.564,2.071,2.892C15.271,42.791,15.628,43,16.001,43 c0.145,0,0.292-0.032,0.432-0.099c0.498-0.239,0.708-0.836,0.469-1.334C16.319,40.352,14.771,37.521,13,37.521z"/><linearGradient id="rJAhWW~cL04FMotgfBKoJd" x1="34.5" x2="34.5" y1="6.25" y2="57.791" gradientUnits="userSpaceOnUse" spreadMethod="reflect"><stop offset="0" stop-color="#1a6dff"/><stop offset="1" stop-color="#c822ff"/></linearGradient><path fill="url(#rJAhWW~cL04FMotgfBKoJd)" d="M40.967,34.129c0.006-0.046,0.004-0.087,0.008-0.132c0.009,0,0.017,0.003,0.026,0.003 c0.187,0,0.376-0.053,0.545-0.162c0.462-0.302,0.593-0.922,0.292-1.384C41.666,32.19,37.52,26,28,26c-0.552,0-1,0.447-1,1 s0.448,1,1,1c0.968,0,1.865,0.077,2.708,0.203c-2.326,0.611-3.405,2.485-3.662,3.565c-0.011,0.048-0.019,0.096-0.023,0.144 c-0.014,0.158-0.322,3.908,1.832,6.263C29.963,39.386,31.486,40,33.381,40c0.336,0,3.327-0.033,4.889-1.198 C39.495,37.888,40.756,35.704,40.967,34.129z M37.074,37.198c-0.779,0.581-2.679,0.8-3.693,0.802c-1.326,0-2.322-0.383-3.045-1.17 c-1.421-1.546-1.352-4.187-1.326-4.665C29.124,31.785,29.794,30,32.309,30c2.237,0,6.059,2.768,6.681,3.549 C39.164,34.115,38.134,36.407,37.074,37.198z"/><linearGradient id="rJAhWW~cL04FMotgfBKoJe" x1="32.001" x2="32.001" y1="6.25" y2="57.791" gradientUnits="userSpaceOnUse" spreadMethod="reflect"><stop offset="0" stop-color="#1a6dff"/><stop offset="1" stop-color="#c822ff"/></linearGradient><path fill="url(#rJAhWW~cL04FMotgfBKoJe)" d="M57,19c0-5.745-4.074-10.461-4.248-10.659c-0.251-0.286-0.645-0.408-1.01-0.307 c-0.368,0.098-0.648,0.396-0.723,0.77c-0.233,1.164-0.558,2.454-0.881,3.497c-0.773-1.699-2.188-3.865-4.669-5.184 c-0.311-0.165-0.685-0.155-0.984,0.025C44.184,7.323,44,7.649,44,8v1.534c-1.495-1.229-3.989-2.733-7.799-3.514 c-0.377-0.076-0.761,0.067-0.994,0.371s-0.272,0.713-0.101,1.056l1.117,2.233c-2.15-1.242-5.247-2.493-9.175-2.68 c-0.389-0.014-0.743,0.184-0.926,0.521c-0.183,0.337-0.158,0.748,0.065,1.061c0.73,1.019,1.171,2.226,1.434,3.246 c-4.805-2.198-9.348,0.559-10.328,1.464c-0.282,0.261-0.364,0.675-0.237,1.037c0.126,0.362,0.45,0.62,0.831,0.663 c0.357,0.041,0.696,0.1,1.017,0.172c-4.402,0.718-7.095,3.659-7.87,6.578c-0.1,0.375,0.026,0.774,0.324,1.023 s0.712,0.303,1.064,0.141c0.368-0.173,1.115-0.211,1.944-0.182L12.4,24.2c-0.442,0.331-0.531,0.958-0.2,1.399l2.8,3.733v4.67 C13.952,33.4,12.723,33,11.286,33c-1.838,0-3.115,0.584-3.793,1.734c-1.362,2.311,0.519,5.847,0.74,6.247 c0.39,0.695,3.911,6.793,7.355,7C15.79,47.994,15.983,48,16.169,48c1.438,0,2.411-0.351,3.07-0.841 c0.333,1.492,0.689,2.882,1.009,3.683C21.398,53.719,31.418,58,37,58c7.062,0,10.465-1.092,10.606-1.138 c0.264-0.087,0.48-0.279,0.596-0.532c0.152-0.331,3.743-8.128,4.383-9.867c0.55-1.493,0.314-2.873,0.129-3.553l4.2-9.506 c0.073-0.166,0.1-0.349,0.078-0.528l-0.953-7.628C56.367,24.185,57,21.777,57,19z M46.267,45.172 c-1.406,0.092-3.331,0.219-6.131-0.163c-4.738-0.646-7.796-1.394-9.1-1.75c-0.159-0.1-0.34-0.151-0.533-0.151 c-0.122-0.036-0.19-0.058-0.194-0.059c-0.357-0.118-0.75-0.021-1.016,0.244l-2.545,2.545c-2.159-0.957-4.028-3.397-4.613-4.287 c-0.009-0.042-0.003-0.083-0.018-0.124c-0.812-2.261-1.493-5.228-1.179-6.081c0.62-1.684,1.971-4.929,1.984-4.961 c0.116-0.279,0.099-0.598-0.045-0.863C22.869,29.505,22,27.879,22,26c0-1.357,5.317-5,7.882-5c2.381,0,11.732,3.107,14.884,4.289 c1.893,0.711,7.11,0.749,9.319,0.724c0.013,0.019,0.027,0.038,0.041,0.056l0.847,6.78l-0.041,0.092 c-0.668-0.244-2.205-0.778-3.229-0.918c-1.332-0.173-5.197,0.809-5.958,1.009c-0.534,0.141-0.853,0.688-0.713,1.222 c0.1,0.379,0.408,0.637,0.767,0.712c-0.393,0.398-0.605,0.709-0.629,0.746c-0.094,0.144-0.15,0.31-0.162,0.481 c-0.005,0.066-0.054,0.925,0.16,2.01c-0.705-0.789-1.722-1.162-2.517-1.203c-0.547-0.02-1.011,0.391-1.045,0.938 c-0.034,0.547,0.385,1.02,0.933,1.059c0.342,0.024,1.46,0.204,1.46,1.486c0,0.389-0.07,1.083-0.542,1.358 c-0.256,0.149-1.3,0.52-3.966-0.987c-0.48-0.269-1.091-0.101-1.362,0.379c-0.271,0.481-0.102,1.091,0.379,1.363 c1.655,0.935,3.076,1.403,4.246,1.403c0.648,0,1.219-0.144,1.712-0.431C45.455,42.992,46,41.896,46,40.484 c0-0.021-0.006-0.039-0.006-0.06c0.169,0.281,0.365,0.555,0.595,0.811c0.924,1.028,2.179,1.592,3.731,1.675 c0.088,0.02,0.211,0.043,0.352,0.061c0.011,0.089,0.016,0.179,0.05,0.263c0.005,0.012,0.473,1.218-0.014,2.538 c-0.08,0.217-0.216,0.551-0.385,0.951C49.579,44.968,48.113,45.047,46.267,45.172z M46.675,47.151l-1.315,3.67 C44.032,50.52,41.522,50,40,50c-1.898,0-4.845,0.54-6.318,0.836l-1.66-5.264c1.692,0.401,4.291,0.934,7.843,1.419 c3,0.408,5.126,0.269,6.534,0.176C46.503,47.16,46.582,47.156,46.675,47.151z M50.468,35c1.81,0,2.307,0.424,2.437,0.606 c0.29,0.407-0.016,1.289-0.218,1.872c-0.107,0.31-0.194,0.578-0.229,0.774c-0.13,0.723-0.956,2.296-1.333,2.747 c-0.11,0-0.266-0.014-0.384-0.046c-0.076-0.021-0.155-0.034-0.234-0.037c-1.054-0.041-1.847-0.372-2.425-1.012 c-0.948-1.049-1.072-2.657-1.082-3.298C47.406,36.128,48.56,35,50.468,35z M14.4,25.2l3.2-2.4c0.319-0.239,0.465-0.646,0.372-1.033 c-0.093-0.388-0.408-0.684-0.8-0.752c-0.436-0.076-2.061-0.336-3.553-0.293C14.822,18.699,17.322,17,21,17 c0.044,0,0.089-0.003,0.133-0.009c0.013-0.004,1.388-0.15,2.031,0.568c0.026,0.03,0.042,0.05,0.049,0.058 c0,0.001,0.001,0.001,0.001,0.002c0.343,0.434,0.971,0.506,1.404,0.167c0.434-0.342,0.509-0.97,0.167-1.404c0,0,0,0-0.001-0.001 c-0.06-0.076-0.123-0.149-0.188-0.218c-0.471-0.517-1.756-1.628-3.972-2.413c1.852-0.838,4.773-1.611,7.711,0.998 c0.302,0.268,0.734,0.327,1.098,0.153c0.363-0.175,0.586-0.551,0.565-0.954c-0.006-0.122-0.142-2.44-1.183-4.765 c5.968,0.9,9.42,4.465,9.456,4.503c0.34,0.359,0.893,0.418,1.3,0.135c0.407-0.284,0.544-0.824,0.322-1.268L37.88,8.524 c4.528,1.464,6.265,3.996,6.281,4.021c0.241,0.371,0.698,0.537,1.123,0.414C45.708,12.833,46,12.442,46,12V9.909 c2.379,2.118,3.011,5.241,3.017,5.276c0.069,0.364,0.333,0.66,0.688,0.77c0.353,0.109,0.74,0.014,1.002-0.248 c0.724-0.724,1.353-2.691,1.777-4.336C53.577,13.09,55,15.919,55,19c0,2.039-0.389,3.888-0.689,5.011 c-2.453,0.029-7.354-0.037-8.842-0.595C43.637,22.729,32.982,19,29.882,19C26.781,19,20,22.994,20,26c0,1.761,0.577,3.3,0.905,4.031 c-0.39,0.941-1.337,3.248-1.843,4.623c-0.364,0.989-0.144,2.64,0.204,4.152c-0.462-0.912-1.206-2.132-2.265-3.225V29 c0-0.217-0.07-0.427-0.2-0.6L14.4,25.2z M18.572,44.64c-0.075,0.411-0.273,1.494-2.864,1.346c-1.689-0.102-4.369-3.561-5.729-5.978 c-0.517-0.935-1.385-3.205-0.764-4.257C9.509,35.253,10.205,35,11.286,35c4.578,0,6.67,5.766,6.691,5.824 c0.011,0.031,0.035,0.051,0.048,0.08c0.049,0.291,0.298,1.742,0.641,3.499C18.63,44.48,18.588,44.553,18.572,44.64z M46.579,55.072 C45.518,55.341,42.361,56,37,56c-5.429,0-14.263-4.321-14.895-5.9c-0.58-1.452-1.341-5.301-1.775-7.658 c0.687,1.116,3.264,4.545,6.373,5.513c0.355,0.11,0.742,0.016,1.004-0.248l2.198-2.198l2.141,6.792 c0.156,0.494,0.663,0.787,1.169,0.676C33.26,52.967,37.659,52,40,52c1.853,0,5.719,0.961,5.757,0.97C45.839,52.99,45.92,53,46,53 c0.413,0,0.796-0.258,0.941-0.663l1.645-4.592c0.239,0.634,0.435,1.133,0.634,1.501C48.223,51.485,47.038,54.074,46.579,55.072z"/></svg>