<svg xmlns="http://www.w3.org/2000/svg"  viewBox="0 0 64 64" width="64px" height="64px"><linearGradient id="uzxSNv6fOna45rdtZFWUka" x1="49" x2="49" y1="47" y2="56" gradientUnits="userSpaceOnUse"><stop offset="0" stop-color="#6dc7ff"/><stop offset="1" stop-color="#e6abff"/></linearGradient><polygon fill="url(#uzxSNv6fOna45rdtZFWUka)" points="49,52 46,51 45,56 53,56 53,47 48,47"/><linearGradient id="uzxSNv6fOna45rdtZFWUkb" x1="37" x2="37" y1="55" y2="61" gradientUnits="userSpaceOnUse"><stop offset="0" stop-color="#6dc7ff"/><stop offset="1" stop-color="#e6abff"/></linearGradient><polygon fill="url(#uzxSNv6fOna45rdtZFWUkb)" points="37,61 41,55 33,55"/><linearGradient id="uzxSNv6fOna45rdtZFWUkc" x1="34" x2="34" y1="7" y2="56" gradientUnits="userSpaceOnUse"><stop offset="0" stop-color="#6dc7ff"/><stop offset="1" stop-color="#e6abff"/></linearGradient><polygon fill="url(#uzxSNv6fOna45rdtZFWUkc)" points="59,18 54,16 54,13 49,14 47,9 42,12 39,7 34,11 28,7 26,12 19,8 19,13 10,12 12,17 7,22 12,24 12,32 13.5,32 12,33 10,41 13,44 8,52 13,53 12,56 29,56 27,50 24,50 25,46 19,45 19,30 18,29 30,29 30,20 43,20 43,29 55,29 55,22 61,24"/><linearGradient id="uzxSNv6fOna45rdtZFWUkd" x1="30.5" x2="30.5" y1="33" y2="42" gradientUnits="userSpaceOnUse"><stop offset="0" stop-color="#6dc7ff"/><stop offset="1" stop-color="#e6abff"/></linearGradient><rect width="5" height="9" x="28" y="33" fill="url(#uzxSNv6fOna45rdtZFWUkd)"/><linearGradient id="uzxSNv6fOna45rdtZFWUke" x1="46.5" x2="46.5" y1="33" y2="42" gradientUnits="userSpaceOnUse"><stop offset="0" stop-color="#6dc7ff"/><stop offset="1" stop-color="#e6abff"/></linearGradient><rect width="5" height="9" x="44" y="33" fill="url(#uzxSNv6fOna45rdtZFWUke)"/><g><linearGradient id="uzxSNv6fOna45rdtZFWUkf" x1="34" x2="34" y1="6" y2="62" gradientUnits="userSpaceOnUse"><stop offset="0" stop-color="#1a6dff"/><stop offset="1" stop-color="#c822ff"/></linearGradient><path fill="url(#uzxSNv6fOna45rdtZFWUkf)" d="M61.948,23.684l-2-6c-0.093-0.279-0.304-0.503-0.577-0.612L55,15.323V13 c0-0.3-0.135-0.583-0.366-0.773c-0.23-0.189-0.533-0.263-0.83-0.207l-4.185,0.837l-1.69-4.228 c-0.109-0.272-0.332-0.483-0.609-0.576c-0.278-0.094-0.583-0.061-0.834,0.09l-4.143,2.485l-2.485-4.143 c-0.141-0.234-0.371-0.401-0.638-0.461c-0.269-0.06-0.546-0.008-0.774,0.144l-5.392,3.595l-4.429-3.544 c-0.248-0.196-0.574-0.268-0.88-0.186c-0.307,0.08-0.556,0.302-0.674,0.596l-1.526,3.817l-5.964-4.26 c-0.306-0.219-0.705-0.246-1.039-0.076C18.209,6.282,18,6.625,18,7v4.883l-7.89-0.877c-0.346-0.037-0.675,0.101-0.888,0.365 c-0.215,0.266-0.279,0.622-0.171,0.945l1.779,5.338l-4.456,3.564c-0.267,0.214-0.406,0.549-0.369,0.889 c0.036,0.339,0.244,0.637,0.55,0.788L11,25.099v7.789l-1.977,8.895c-0.11,0.5,0.174,1.004,0.66,1.165l1.906,0.636l-4.484,8.969 c-0.171,0.342-0.132,0.751,0.1,1.055c0.232,0.304,0.618,0.452,0.991,0.373l3.45-0.69l-0.616,2.468 c-0.075,0.299-0.008,0.615,0.182,0.857C11.401,56.858,11.692,57,12,57h7h10h4.132l3.036,4.555C36.354,61.833,36.666,62,37,62 s0.646-0.167,0.832-0.445l3.052-4.578C40.924,56.981,40.959,57,41,57h4.043H53c0.553,0,1-0.447,1-1v-9V30h1c0.553,0,1-0.447,1-1 v-5.613l4.684,1.561c0.359,0.121,0.756,0.026,1.023-0.241S62.068,24.043,61.948,23.684z M18,55h-4.719l0.688-2.758 c0.084-0.332-0.01-0.685-0.246-0.933s-0.584-0.357-0.92-0.29l-2.995,0.599l4.086-8.171c0.13-0.26,0.141-0.563,0.029-0.83 s-0.333-0.475-0.607-0.565l-2.145-0.715l1.718-7.728L18,30.202V55z M13,31.132v-6.152c0.001-0.001,0.001-0.002,0.002-0.003 c0.081-0.162,0.097-0.333,0.087-0.501L17,21.868v6.597L13,31.132z M20,55v-8.338l3.74,0.255l-0.71,2.841 c-0.075,0.299-0.008,0.615,0.182,0.857C23.401,50.858,23.692,51,24,51h2.279l1.333,4H20z M37,59.197l-2.079-3.119 c0.002-0.027,0.016-0.051,0.016-0.079h4.195L37,59.197z M52,55h-5.747l0.53-2.773l2.975,0.743c0.361,0.092,0.747-0.029,0.995-0.313 c0.247-0.282,0.315-0.68,0.176-1.028L49.477,48H52V55z M52,46h-4c-0.332,0-0.642,0.165-0.828,0.439 c-0.186,0.274-0.224,0.624-0.101,0.932l1.273,3.185l-2.103-0.525c-0.267-0.068-0.549-0.021-0.78,0.127 c-0.231,0.148-0.393,0.385-0.444,0.654L44.216,55h-2.221c0-0.162-0.034-0.324-0.113-0.472C41.708,54.203,41.369,54,41,54h-8 c-0.369,0-0.708,0.203-0.882,0.528c-0.079,0.148-0.113,0.31-0.113,0.472H29.72l-1.772-5.316C27.813,49.275,27.431,49,27,49h-1.719 l0.688-2.758c0.072-0.287,0.013-0.591-0.161-0.83c-0.174-0.24-0.445-0.39-0.74-0.41L20,44.657V30h2.915 c2.552,0.371,4.831,1.164,6.677,2H24c-0.553,0-1,0.447-1,1v9c0,0.553,0.447,1,1,1h9c0.553,0,1-0.447,1-1v-7.496 c0.231,0.165,0.368,0.271,0.376,0.277l1.249-1.563C35.49,33.111,33.39,31.457,30.04,30h12.92c-3.35,1.457-5.45,3.111-5.585,3.219 l1.249,1.563c0.008-0.006,0.145-0.112,0.376-0.277V42c0,0.553,0.447,1,1,1h9c0.553,0,1-0.447,1-1v-9c0-0.553-0.447-1-1-1h-5.592 c1.845-0.836,4.125-1.629,6.677-2H52V46z M32,34v7h-7v-7H32z M41,34h7v7h-7V34z M54,28h-1H19v-7h35V28z M56,21.28V20 c0-0.553-0.447-1-1-1H18c-0.006,0-0.011,0.003-0.018,0.004c-0.116,0.002-0.23,0.026-0.34,0.068 c-0.028,0.011-0.053,0.026-0.08,0.039c-0.039,0.019-0.08,0.032-0.117,0.057l-5.932,3.954L8.85,21.801l3.775-3.02 c0.327-0.262,0.456-0.7,0.323-1.098l-1.505-4.518l7.446,0.828c0.282,0.029,0.565-0.059,0.777-0.249C19.879,13.556,20,13.284,20,13 V8.943l5.419,3.87c0.248,0.178,0.564,0.23,0.862,0.146c0.295-0.087,0.533-0.304,0.647-0.589l1.499-3.748l3.947,3.158 c0.343,0.273,0.817,0.292,1.18,0.051l5.127-3.418l2.461,4.101c0.284,0.474,0.897,0.627,1.372,0.343l3.993-2.396l1.563,3.909 c0.179,0.447,0.642,0.708,1.125,0.609L53,14.22V16c0,0.409,0.249,0.776,0.629,0.929l4.569,1.827l1.221,3.663L56,21.28z"/><linearGradient id="uzxSNv6fOna45rdtZFWUkg" x1="37" x2="37" y1="45" y2="52" gradientUnits="userSpaceOnUse"><stop offset="0" stop-color="#1a6dff"/><stop offset="1" stop-color="#c822ff"/></linearGradient><path fill="url(#uzxSNv6fOna45rdtZFWUkg)" d="M43.89,47.006c-8.504,0.951-13.33-1.837-13.378-1.865c-0.366-0.218-0.834-0.18-1.16,0.098 c-0.327,0.278-0.439,0.734-0.28,1.133l2,5C31.224,51.751,31.591,52,32,52h10c0.266,0,0.52-0.105,0.707-0.293 c0.046-0.046,1.127-1.139,2.188-3.26c0.164-0.328,0.136-0.719-0.074-1.02C44.611,47.129,44.261,46.968,43.89,47.006z M41.55,50 h-8.873l-0.848-2.12c2.112,0.729,5.617,1.536,10.346,1.275C41.924,49.528,41.706,49.81,41.55,50z"/></g><rect width="3" height="3" x="30" y="36" fill="#7944ff"/><rect width="3" height="3" x="46" y="36" fill="#7944ff"/></svg>