<svg xmlns="http://www.w3.org/2000/svg"  viewBox="0 0 64 64" width="64px" height="64px"><linearGradient id="fvZ1uH-c8oYvsbF0mlFmPa" x1="32" x2="32" y1="45.439" y2="9.533" gradientTransform="matrix(1 0 0 -1 0 66)" gradientUnits="userSpaceOnUse"><stop offset="0" stop-color="#6dc7ff"/><stop offset="1" stop-color="#e6abff"/></linearGradient><polygon fill="url(#fvZ1uH-c8oYvsbF0mlFmPa)" points="31.25,48 32.75,48 35,54 29,54"/><linearGradient id="fvZ1uH-c8oYvsbF0mlFmPb" x1="32" x2="32" y1="45.439" y2="9.533" gradientTransform="matrix(1 0 0 -1 0 66)" gradientUnits="userSpaceOnUse"><stop offset="0" stop-color="#6dc7ff"/><stop offset="1" stop-color="#e6abff"/></linearGradient><polygon fill="url(#fvZ1uH-c8oYvsbF0mlFmPb)" points="35,46 32,49 29,46 28.76,45 35.24,45"/><linearGradient id="fvZ1uH-c8oYvsbF0mlFmPc" x1="25" x2="25" y1="45.439" y2="9.533" gradientTransform="matrix(1 0 0 -1 0 66)" gradientUnits="userSpaceOnUse"><stop offset="0" stop-color="#6dc7ff"/><stop offset="1" stop-color="#e6abff"/></linearGradient><polygon fill="url(#fvZ1uH-c8oYvsbF0mlFmPc)" points="25,50 30,45 20,45"/><linearGradient id="fvZ1uH-c8oYvsbF0mlFmPd" x1="39" x2="39" y1="45.439" y2="9.533" gradientTransform="matrix(1 0 0 -1 0 66)" gradientUnits="userSpaceOnUse"><stop offset="0" stop-color="#6dc7ff"/><stop offset="1" stop-color="#e6abff"/></linearGradient><polygon fill="url(#fvZ1uH-c8oYvsbF0mlFmPd)" points="39,50 44,45 34,45"/><linearGradient id="fvZ1uH-c8oYvsbF0mlFmPe" x1="28.5" x2="28.5" y1="45.439" y2="9.533" gradientTransform="matrix(1 0 0 -1 0 66)" gradientUnits="userSpaceOnUse"><stop offset="0" stop-color="#6dc7ff"/><stop offset="1" stop-color="#e6abff"/></linearGradient><rect width="5" height="4" x="26" y="37" fill="url(#fvZ1uH-c8oYvsbF0mlFmPe)"/><linearGradient id="fvZ1uH-c8oYvsbF0mlFmPf" x1="35.5" x2="35.5" y1="45.439" y2="9.533" gradientTransform="matrix(1 0 0 -1 0 66)" gradientUnits="userSpaceOnUse"><stop offset="0" stop-color="#6dc7ff"/><stop offset="1" stop-color="#e6abff"/></linearGradient><rect width="5" height="4" x="33" y="37" fill="url(#fvZ1uH-c8oYvsbF0mlFmPf)"/><linearGradient id="fvZ1uH-c8oYvsbF0mlFmPg" x1="41.5" x2="41.5" y1="45.439" y2="9.533" gradientTransform="matrix(1 0 0 -1 0 66)" gradientUnits="userSpaceOnUse"><stop offset="0" stop-color="#6dc7ff"/><stop offset="1" stop-color="#e6abff"/></linearGradient><circle cx="41.5" cy="22.5" r="3.5" fill="url(#fvZ1uH-c8oYvsbF0mlFmPg)"/><linearGradient id="fvZ1uH-c8oYvsbF0mlFmPh" x1="22.5" x2="22.5" y1="45.439" y2="9.533" gradientTransform="matrix(1 0 0 -1 0 66)" gradientUnits="userSpaceOnUse"><stop offset="0" stop-color="#6dc7ff"/><stop offset="1" stop-color="#e6abff"/></linearGradient><circle cx="22.5" cy="22.5" r="3.5" fill="url(#fvZ1uH-c8oYvsbF0mlFmPh)"/><linearGradient id="fvZ1uH-c8oYvsbF0mlFmPi" x1="32" x2="32" y1="60.887" y2="8.133" gradientTransform="matrix(1 0 0 -1 0 66)" gradientUnits="userSpaceOnUse"><stop offset="0" stop-color="#1a6dff"/><stop offset="1" stop-color="#c822ff"/></linearGradient><path fill="url(#fvZ1uH-c8oYvsbF0mlFmPi)" d="M53,6.981H11c-0.563,0-1.019,0.456-1.019,1.019v46c0,0.562,0.456,1.019,1.019,1.019h42	c0.562,0,1.019-0.456,1.019-1.019V8C54.019,7.438,53.562,6.981,53,6.981z M51.981,9.019v34.963H12.019V9.019H51.981z M12.019,52.981	v-6.963h39.963v6.963H12.019z"/><linearGradient id="fvZ1uH-c8oYvsbF0mlFmPj" x1="31.999" x2="31.999" y1="60.887" y2="8.133" gradientTransform="matrix(1 0 0 -1 0 66)" gradientUnits="userSpaceOnUse"><stop offset="0" stop-color="#1a6dff"/><stop offset="1" stop-color="#c822ff"/></linearGradient><path fill="url(#fvZ1uH-c8oYvsbF0mlFmPj)" d="M15.751,27.165c1.692,0.248,3.146,1.394,3.792,2.987c0.129,0.316,0.397,0.556,0.727,0.646	c0.724,0.198,1.474,0.299,2.23,0.299c2.091,0,4.008-0.752,5.5-1.997v0.4c0,0.553,0.447,1,1,1s1-0.447,1-1V27c0-1,0.865-2,2-2	c1.143,0,2,1,2,2v2.5c0,0.553,0.447,1,1,1s1-0.447,1-1v-0.401c1.492,1.245,3.409,1.997,5.5,1.997c0.328,0,0.656-0.021,0.984-0.056	c0.418-0.044,0.774-0.323,0.917-0.719c0.692-1.917,2.521-3.21,4.573-3.226c0.458,0.066,0.896-0.164,1.113-0.571	c0.669-1.256,1.009-2.61,1.009-4.025c0-4.74-3.856-8.597-8.597-8.597s-8.597,3.856-8.597,8.597c0,0.21,0.017,0.416,0.031,0.622	C32.633,23.049,32.323,23,32,23s-0.633,0.049-0.935,0.122c0.015-0.206,0.031-0.412,0.031-0.622c0-4.74-3.856-8.597-8.597-8.597	s-8.597,3.856-8.597,8.597c0,1.396,0.345,2.78,0.997,4.008C15.046,26.852,15.362,27.108,15.751,27.165z M41.5,16.097	c3.531,0,6.403,2.872,6.403,6.403c0,0.843-0.162,1.656-0.482,2.427c-2.496,0.206-4.711,1.729-5.798,3.976	c-0.041,0.001-0.082,0.001-0.123,0.001c-3.531,0-6.403-2.872-6.403-6.403S37.969,16.097,41.5,16.097z M22.5,16.097	c3.531,0,6.403,2.872,6.403,6.403s-2.872,6.403-6.403,6.403c-0.394,0-0.784-0.036-1.167-0.109c-0.94-1.854-2.663-3.212-4.678-3.688	c-0.366-0.814-0.559-1.707-0.559-2.606C16.097,18.969,18.969,16.097,22.5,16.097z"/><linearGradient id="fvZ1uH-c8oYvsbF0mlFmPk" x1="31.999" x2="31.999" y1="60.887" y2="8.133" gradientTransform="matrix(1 0 0 -1 0 66)" gradientUnits="userSpaceOnUse"><stop offset="0" stop-color="#1a6dff"/><stop offset="1" stop-color="#c822ff"/></linearGradient><path fill="url(#fvZ1uH-c8oYvsbF0mlFmPk)" d="M47.417,31.185c-9.221,6.48-21.613,6.48-30.834,0c-0.452-0.318-1.077-0.207-1.394,0.243	c-0.317,0.452-0.208,1.076,0.243,1.394c4.955,3.481,10.761,5.223,16.567,5.223s11.612-1.741,16.567-5.223	c0.451-0.317,0.561-0.941,0.243-1.394C48.492,30.978,47.868,30.866,47.417,31.185z"/></svg>