<svg xmlns="http://www.w3.org/2000/svg"  viewBox="0 0 64 64" width="64px" height="64px"><linearGradient id="Cph3U4tL7_G169qGX5ORha" x1="37.5" x2="37.5" y1="19" y2="24" gradientUnits="userSpaceOnUse" spreadMethod="reflect"><stop offset="0" stop-color="#6dc7ff"/><stop offset="1" stop-color="#e6abff"/></linearGradient><path fill="url(#Cph3U4tL7_G169qGX5ORha)" d="M40,21.5c0,1.38-1.12,2.5-2.5,2.5S35,22.88,35,21.5s1.12-2.5,2.5-2.5 c0.33,0,0.64,0.06,0.93,0.18C38.17,19.36,38,19.66,38,20c0,0.55,0.45,1,1,1c0.34,0,0.64-0.17,0.82-0.43 C39.94,20.86,40,21.17,40,21.5z"/><linearGradient id="Cph3U4tL7_G169qGX5ORhb" x1="26.5" x2="26.5" y1="19" y2="24" gradientUnits="userSpaceOnUse" spreadMethod="reflect"><stop offset="0" stop-color="#6dc7ff"/><stop offset="1" stop-color="#e6abff"/></linearGradient><path fill="url(#Cph3U4tL7_G169qGX5ORhb)" d="M29,21.5c0,1.38-1.12,2.5-2.5,2.5S24,22.88,24,21.5s1.12-2.5,2.5-2.5 c0.33,0,0.64,0.06,0.93,0.18C27.17,19.36,27,19.66,27,20c0,0.55,0.45,1,1,1c0.34,0,0.64-0.17,0.82-0.43 C28.94,20.86,29,21.17,29,21.5z"/><linearGradient id="Cph3U4tL7_G169qGX5ORhc" x1="32" x2="32" y1="23" y2="25" gradientUnits="userSpaceOnUse" spreadMethod="reflect"><stop offset="0" stop-color="#6dc7ff"/><stop offset="1" stop-color="#e6abff"/></linearGradient><path fill="url(#Cph3U4tL7_G169qGX5ORhc)" d="M30 25L32 23 34 25z"/><linearGradient id="Cph3U4tL7_G169qGX5ORhd" x1="32" x2="32" y1="26" y2="29.26" gradientUnits="userSpaceOnUse" spreadMethod="reflect"><stop offset="0" stop-color="#6dc7ff"/><stop offset="1" stop-color="#e6abff"/></linearGradient><path fill="url(#Cph3U4tL7_G169qGX5ORhd)" d="M34.348,26c0,2-1.051,3-2.348,3s-2.348-1-2.348-3H34.348z"/><linearGradient id="Cph3U4tL7_G169qGX5ORhe" x1="32" x2="32" y1="7" y2="56" gradientUnits="userSpaceOnUse" spreadMethod="reflect"><stop offset="0" stop-color="#1a6dff"/><stop offset="1" stop-color="#c822ff"/></linearGradient><path fill="url(#Cph3U4tL7_G169qGX5ORhe)" d="M49.5,10c-1.954,0-3.826,0.531-5.469,1.538C41.474,8.539,37.446,7,32,7 c-5.412,0-9.509,1.59-12.044,4.531C18.315,10.529,16.449,10,14.5,10C8.71,10,4,14.71,4,20.5S8.71,31,14.5,31 c1.946,0,3.816-0.528,5.457-1.53c0.811,0.941,1.786,1.74,2.91,2.396C19.876,33.368,16,36.836,16,41.333 C16,43.355,17.572,45,19.504,45c0.638,0,1.228-0.193,1.743-0.505c0.147,0.934,0.369,1.786,0.66,2.565 C20.157,48.196,19,50.135,19,52.333C19,54.595,21.49,56,25.5,56c3.599,0,5.967-1.135,6.416-3.002C31.944,52.998,31.972,53,32,53 c0.369,0,0.729-0.009,1.078-0.027C33.512,54.855,35.885,56,39.5,56c4.01,0,6.5-1.405,6.5-3.667c0-2.532-1.536-4.715-3.745-5.728 c0.211-0.652,0.38-1.352,0.5-2.109C43.271,44.808,43.86,45,44.496,45C46.428,45,48,43.355,48,41.333c0-4.482-3.844-7.937-6.831-9.45 c1.108-0.652,2.052-1.47,2.862-2.421C45.675,30.469,47.546,31,49.5,31C55.29,31,60,26.29,60,20.5S55.29,10,49.5,10z M14.5,29 C9.813,29,6,25.187,6,20.5S9.813,12,14.5,12c1.531,0,2.991,0.422,4.29,1.187C17.623,15.189,17,17.635,17,20.5 c0,2.864,0.623,5.31,1.789,7.311C17.49,28.576,16.029,29,14.5,29z M19.504,43C18.675,43,18,42.252,18,41.333 c0-2.717,1.931-5.038,3.93-6.535C21.322,36.76,21,38.945,21,41.286c0,0.032,0.004,0.06,0.004,0.092 C20.981,42.276,20.319,43,19.504,43z M25.5,54c-2.607,0-4.5-0.701-4.5-1.667C21,49.943,23.019,48,25.5,48s4.5,1.943,4.5,4.333 C30,53.299,28.107,54,25.5,54z M44,52.333C44,53.299,42.107,54,39.5,54S35,53.299,35,52.333C35,49.943,37.019,48,39.5,48 S44,49.943,44,52.333z M39.5,46c-3.101,0-5.698,2.129-6.343,4.964c-0.422,0.026-0.863,0.036-1.306,0.033 C31.22,48.145,28.614,46,25.5,46c-0.612,0-1.203,0.089-1.765,0.244c-0.471-1.327-0.724-2.949-0.731-4.867 c0-0.015,0.004-0.029,0.004-0.044h-0.006c0-0.016-0.002-0.031-0.002-0.047c0-3.256,0.661-6.157,1.905-8.462 C26.925,33.59,29.292,34,32,34c2.729,0,5.091-0.399,7.106-1.157C40.344,35.145,41,38.039,41,41.286c0,0.016-0.002,0.031-0.002,0.047 h-0.006c0,0.016,0.004,0.03,0.004,0.046c-0.007,1.828-0.238,3.388-0.667,4.679C40.057,46.023,39.782,46,39.5,46z M46,41.333 C46,42.252,45.325,43,44.496,43c-0.815,0-1.477-0.724-1.5-1.621c0-0.032,0.004-0.061,0.004-0.093c0-2.342-0.322-4.527-0.931-6.489 C44.069,36.293,46,38.615,46,41.333z M32,32c-10.744,0-13-6.254-13-11.5S21.256,9,32,9c5.211,0,8.92,1.498,11.023,4.451 C44.335,15.294,45,17.665,45,20.5c0,2.834-0.664,5.205-1.973,7.045C40.924,30.501,37.214,32,32,32z M49.5,29 c-1.527,0-2.981-0.419-4.277-1.179C46.402,25.79,47,23.334,47,20.5c0-2.833-0.599-5.289-1.778-7.32C46.518,12.42,47.973,12,49.5,12 c4.687,0,8.5,3.813,8.5,8.5S54.187,29,49.5,29z"/><linearGradient id="Cph3U4tL7_G169qGX5ORhf" x1="36.999" x2="36.999" y1="7.528" y2="55.723" gradientUnits="userSpaceOnUse" spreadMethod="reflect"><stop offset="0" stop-color="#1a6dff"/><stop offset="1" stop-color="#c822ff"/></linearGradient><path fill="url(#Cph3U4tL7_G169qGX5ORhf)" d="M34.4,14.836c-0.443,0.331-0.534,0.957-0.204,1.399c0.196,0.264,0.498,0.402,0.803,0.402 c0.208,0,0.418-0.064,0.597-0.198c0.76-0.566,2.049-0.567,2.807-0.001c0.443,0.33,1.068,0.239,1.399-0.204 c0.33-0.442,0.239-1.069-0.204-1.399C38.154,13.758,35.843,13.759,34.4,14.836z"/><linearGradient id="Cph3U4tL7_G169qGX5ORhg" x1="26.999" x2="26.999" y1="7.611" y2="55.776" gradientUnits="userSpaceOnUse" spreadMethod="reflect"><stop offset="0" stop-color="#1a6dff"/><stop offset="1" stop-color="#c822ff"/></linearGradient><path fill="url(#Cph3U4tL7_G169qGX5ORhg)" d="M24.4,14.836c-0.443,0.331-0.534,0.957-0.204,1.399c0.196,0.264,0.498,0.402,0.803,0.402 c0.208,0,0.418-0.064,0.597-0.198c0.76-0.566,2.049-0.567,2.807-0.001c0.443,0.33,1.069,0.239,1.399-0.204 c0.33-0.442,0.239-1.069-0.204-1.399C28.154,13.758,25.844,13.759,24.4,14.836z"/></svg>