<svg xmlns="http://www.w3.org/2000/svg"  viewBox="0 0 64 64" width="64px" height="64px"><linearGradient id="0zaJayXeh4~dFIj7WZdska" x1="16.009" x2="16.009" y1="38.344" y2="46.108" gradientUnits="userSpaceOnUse" spreadMethod="reflect"><stop offset="0" stop-color="#6dc7ff"/><stop offset="1" stop-color="#e6abff"/></linearGradient><path fill="url(#0zaJayXeh4~dFIj7WZdska)" d="M13.011,39.545c0.588-0.34,1.27-0.535,1.998-0.535c2.208,0,3.998,1.79,3.998,3.998 c0,1.194-0.524,2.266-1.354,2.999"/><linearGradient id="0zaJayXeh4~dFIj7WZdskb" x1="47.992" x2="47.992" y1="38.344" y2="46.108" gradientUnits="userSpaceOnUse" spreadMethod="reflect"><stop offset="0" stop-color="#6dc7ff"/><stop offset="1" stop-color="#e6abff"/></linearGradient><path fill="url(#0zaJayXeh4~dFIj7WZdskb)" d="M46.348,46.007c-0.831-0.733-1.354-1.805-1.354-2.999c0-2.208,1.79-3.998,3.998-3.998 c0.729,0,1.412,0.195,2,0.536"/><linearGradient id="0zaJayXeh4~dFIj7WZdskc" x1="32" x2="32" y1="4.695" y2="59.455" gradientUnits="userSpaceOnUse" spreadMethod="reflect"><stop offset="0" stop-color="#1a6dff"/><stop offset="1" stop-color="#c822ff"/></linearGradient><path fill="url(#0zaJayXeh4~dFIj7WZdskc)" d="M52.375,10.101c-13.327-5.468-27.42-5.468-40.746,0L11,10.355v21.659 c0,9.666,6.5,18.092,16,20.369v0.619C27,55.758,29.245,58,32,58s5-2.242,5-4.997v-0.619c9.5-2.278,16-10.703,16-20.369V10.355 L52.375,10.101z M35,53.003c0,1.653-1.347,2.998-3,2.998s-3-1.345-3-2.998v-1.999C29,50.452,29.45,50,30.001,50h3.998 C34.55,50,35,50.452,35,51.004V53.003z M36.924,50.341C36.622,49.005,35.425,48,33.999,48h-3.998c-1.426,0-2.623,1.005-2.925,2.341 C18.86,48.142,13,40.623,13,32.014V21.672c4.5-2.16,9.5-2.189,14-0.041v11.382c0,2.205,2,3.998,4,3.998v1.999 c0,1.653-1.344,2.99-2.998,2.99h-1.999C25.452,42,25,41.561,25,41.009V39h-2v2.009C23,42.663,24.35,44,26.003,44h1.999 c1.64,0,3.086-0.805,3.998-2.03c0.912,1.224,2.357,2.03,3.998,2.03h1.999C39.65,44,41,42.663,41,41.009V39h-2v2.009 C39,41.561,38.548,42,37.997,42h-1.999C34.344,42,33,40.664,33,39.01v-1.999c2,0,3.997-2.011,3.997-4.011h-1.999 c0,1-0.897,2-1.999,2h-1.999C29.899,35,29,34.115,29,33.013V20.421l-0.533-0.283C23.633,17.561,18,17.343,13,19.475V11.7 c12.5-4.929,25.5-4.929,38,0v7.776c-5-2.132-10.636-1.915-15.467,0.662L35,20.421V25h2v-3.368c4.5-2.147,9.5-2.116,14,0.041v10.341 C51,40.623,45.14,48.142,36.924,50.341z"/><linearGradient id="0zaJayXeh4~dFIj7WZdskd" x1="21.006" x2="21.006" y1="4.695" y2="59.455" gradientUnits="userSpaceOnUse" spreadMethod="reflect"><stop offset="0" stop-color="#1a6dff"/><stop offset="1" stop-color="#c822ff"/></linearGradient><path fill="url(#0zaJayXeh4~dFIj7WZdskd)" d="M25.004,26.017c0-2.205-1.793-3.998-3.998-3.998s-3.998,1.793-3.998,3.998 s1.793,3.998,3.998,3.998S25.004,28.222,25.004,26.017z M21.006,28.016c-1.102,0-1.999-0.897-1.999-1.999s0.897-1.999,1.999-1.999 s1.999,0.897,1.999,1.999S22.108,28.016,21.006,28.016z"/><linearGradient id="0zaJayXeh4~dFIj7WZdske" x1="42.994" x2="42.994" y1="4.695" y2="59.455" gradientUnits="userSpaceOnUse" spreadMethod="reflect"><stop offset="0" stop-color="#1a6dff"/><stop offset="1" stop-color="#c822ff"/></linearGradient><path fill="url(#0zaJayXeh4~dFIj7WZdske)" d="M42.994,22.019c-2.205,0-3.998,1.793-3.998,3.998s1.793,3.998,3.998,3.998 c2.205,0,3.998-1.793,3.998-3.998S45.199,22.019,42.994,22.019z M42.994,28.016c-1.102,0-1.999-0.897-1.999-1.999 s0.897-1.999,1.999-1.999c1.102,0,1.999,0.897,1.999,1.999S44.096,28.016,42.994,28.016z"/></svg>